<svg id="SvgjsSvg1001" width="475" height="300" xmlns="http://www.w3.org/2000/svg" version="1.1" xmlns:xlink="http://www.w3.org/1999/xlink" xmlns:svgjs="http://svgjs.com/svgjs"><defs id="SvgjsDefs1002"></defs><rect id="SvgjsRect1008" width="475" height="300" fill="#ffffff"></rect><g id="SvgjsG1013" transform="matrix(1,0,0,1,225.56500244140625,127.91799926757812)"><path id="SvgjsPath1014" d="M21.352000064849854 13.242999053955078Q21.352000064849854 16.96599905395508 20.000500064849852 19.71999905395508Q18.649000064849854 22.47399905395508 16.235000064849853 23.95299905395508Q13.821000064849853 25.431999053955078 10.693000064849853 25.431999053955078Q7.5480000648498535 25.431999053955078 5.125500064849853 23.95299905395508Q2.703000064849854 22.47399905395508 1.3515000648498536 19.71999905395508Q6.484985348720329e-8 16.96599905395508 6.484985348720329e-8 13.242999053955078L6.484985348720329e-8 12.205999053955079Q6.484985348720329e-8 8.482999053955076 1.3430000648498535 5.720499053955077Q2.6860000648498534 2.957999053955078 5.100000064849853 1.4789990539550786Q7.514000064849853 -9.460449206244448e-7 10.659000064849854 -9.460449206244448e-7Q13.787000064849854 -9.460449206244448e-7 16.218000064849853 1.4789990539550786Q18.649000064849854 2.957999053955078 20.000500064849852 5.720499053955077Q21.352000064849854 8.482999053955076 21.352000064849854 12.205999053955079L21.352000064849854 13.242999053955078ZM15.759000064849854 12.171999053955078Q15.759000064849854 8.465999053955077 14.433000064849853 6.502499053955077Q13.107000064849853 4.538999053955077 10.659000064849854 4.538999053955077Q8.177000064849853 4.538999053955077 6.8765000648498535 6.493999053955079Q5.576000064849853 8.448999053955077 5.576000064849853 12.171999053955078L5.576000064849853 13.242999053955078Q5.576000064849853 16.948999053955077 6.902000064849853 18.929499053955077Q8.228000064849853 20.909999053955076 10.693000064849853 20.909999053955076Q13.124000064849854 20.909999053955076 14.441500064849853 18.92099905395508Q15.759000064849854 16.931999053955078 15.759000064849854 13.242999053955078L15.759000064849854 12.171999053955078ZM35.25800006484985 6.69799905395508L40.57900006484985 6.69799905395508L40.57900006484985 25.091999053955078L35.598000064849856 25.091999053955078L35.44500006484985 23.15399905395508Q34.56100006484986 24.25899905395508 33.32000006484985 24.845499053955077Q32.07900006484985 25.431999053955078 30.481000064849855 25.431999053955078Q27.608000064849854 25.431999053955078 25.976000064849853 23.765999053955078Q24.344000064849855 22.099999053955077 24.344000064849855 18.59799905395508L24.344000064849855 6.69799905395508L29.648000064849853 6.69799905395508L29.648000064849853 18.631999053955077Q29.648000064849853 19.90699905395508 30.302500064849852 20.52749905395508Q30.95700006484985 21.14799905395508 32.11300006484986 21.14799905395508Q34.37400006484985 21.14799905395508 35.25800006484985 19.58399905395508L35.25800006484985 6.69799905395508ZM52.156000064849856 21.079999053955078Q52.955000064849855 21.079999053955078 53.58400006484985 20.960999053955078L53.58400006484985 24.95599905395508Q52.190000064849855 25.431999053955078 50.49000006484985 25.431999053955078Q47.821000064849855 25.431999053955078 46.401500064849856 24.088999053955078Q44.982000064849856 22.745999053955078 44.982000064849856 19.855999053955077L44.982000064849856 10.556999053955078L42.46600006484985 10.556999053955078L42.46600006484985 6.69799905395508L44.982000064849856 6.69799905395508L44.982000064849856 2.141999053955079L50.28600006484985 2.141999053955079L50.28600006484985 6.69799905395508L53.36300006484986 6.69799905395508L53.36300006484986 10.556999053955078L50.28600006484985 10.556999053955078L50.28600006484985 19.20999905395508Q50.28600006484985 20.297999053955078 50.711000064849856 20.68899905395508Q51.13600006484985 21.079999053955078 52.156000064849856 21.079999053955078ZM65.51800006484986 6.357999053955076Q67.81300006484986 6.357999053955076 69.42800006484985 7.505499053955077Q71.04300006484985 8.652999053955078 71.86750006484985 10.752499053955079Q72.69200006484985 12.851999053955078 72.69200006484985 15.673999053955079L72.69200006484985 16.030999053955078Q72.69200006484985 18.733999053955078 71.85900006484985 20.86749905395508Q71.02600006484985 23.000999053955077 69.41950006484986 24.21649905395508Q67.81300006484986 25.431999053955078 65.55200006484985 25.431999053955078Q62.90000006484985 25.431999053955078 61.217000064849856 23.51099905395508L61.217000064849856 32.16399905395508L55.913000064849854 32.16399905395508L55.913000064849854 6.69799905395508L60.84300006484985 6.69799905395508L61.03000006484985 8.448999053955077Q62.74700006484986 6.357999053955076 65.51800006484986 6.357999053955076ZM67.38800006484985 16.030999053955078L67.38800006484985 15.673999053955079Q67.38800006484985 13.344999053955078 66.61450006484985 11.993499053955079Q65.84100006484985 10.641999053955079 64.17500006484985 10.641999053955079Q63.053000064849854 10.641999053955079 62.33050006484985 11.041499053955079Q61.608000064849854 11.440999053955078 61.217000064849856 12.256999053955077L61.217000064849856 19.46499905395508Q62.03300006484985 21.14799905395508 64.20900006484986 21.14799905395508Q65.89200006484985 21.14799905395508 66.64000006484986 19.74549905395508Q67.38800006484985 18.34299905395508 67.38800006484985 16.030999053955078ZM74.74900006484985 15.724999053955077Q74.74900006484985 13.021999053955078 75.77750006484986 10.896999053955078Q76.80600006484985 8.771999053955078 78.78650006484985 7.564999053955077Q80.76700006484985 6.357999053955076 83.52100006484986 6.357999053955076Q86.29200006484986 6.357999053955076 88.28100006484985 7.564999053955077Q90.27000006484985 8.771999053955078 91.29850006484985 10.888499053955078Q92.32700006484986 13.004999053955078 92.32700006484986 15.724999053955077L92.32700006484986 16.08199905395508Q92.32700006484986 18.784999053955076 91.29850006484985 20.909999053955076Q90.27000006484985 23.03499905395508 88.28950006484985 24.23349905395508Q86.30900006484985 25.431999053955078 83.55500006484985 25.431999053955078Q80.78400006484985 25.431999053955078 78.79500006484986 24.23349905395508Q76.80600006484985 23.03499905395508 75.77750006484986 20.918499053955077Q74.74900006484985 18.80199905395508 74.74900006484985 16.08199905395508L74.74900006484985 15.724999053955077ZM80.05300006484985 16.08199905395508Q80.05300006484985 18.410999053955077 80.87750006484985 19.779499053955078Q81.70200006484986 21.14799905395508 83.55500006484985 21.14799905395508Q85.37400006484985 21.14799905395508 86.19850006484985 19.77099905395508Q87.02300006484985 18.393999053955078 87.02300006484985 16.08199905395508L87.02300006484985 15.724999053955077Q87.02300006484985 13.446999053955079 86.19850006484985 12.044499053955079Q85.37400006484985 10.641999053955079 83.52100006484986 10.641999053955079Q81.70200006484986 10.641999053955079 80.87750006484985 12.044499053955079Q80.05300006484985 13.446999053955079 80.05300006484985 15.724999053955077L80.05300006484985 16.08199905395508ZM101.23500006484986 17.78199905395508Q98.22600006484986 17.13599905395508 96.48350006484985 15.775999053955077Q94.74100006484986 14.415999053955078 94.74100006484986 12.137999053955077Q94.74100006484986 10.573999053955077 95.63350006484985 9.247999053955079Q96.52600006484985 7.921999053955076 98.21750006484986 7.139999053955076Q99.90900006484985 6.357999053955076 102.18700006484985 6.357999053955076Q104.56700006484985 6.357999053955076 106.34350006484985 7.114499053955079Q108.12000006484985 7.870999053955078 109.08050006484986 9.222499053955078Q110.04100006484985 10.573999053955077 110.04100006484985 12.324999053955079L104.73700006484985 12.324999053955079Q104.73700006484985 11.236999053955078 104.11650006484986 10.641999053955079Q103.49600006484985 10.046999053955078 102.17000006484986 10.046999053955078Q101.09900006484985 10.046999053955078 100.44450006484985 10.556999053955078Q99.79000006484985 11.066999053955078 99.79000006484985 11.865999053955077Q99.79000006484985 12.647999053955077 100.53800006484985 13.132499053955078Q101.28600006484986 13.616999053955078 103.03700006484985 13.939999053955079Q105.19600006484985 14.330999053955079 106.71750006484986 14.976999053955078Q108.23900006484985 15.622999053955079 109.14850006484986 16.787499053955077Q110.05800006484985 17.951999053955078 110.05800006484985 19.77099905395508Q110.05800006484985 21.38599905395508 109.08900006484986 22.677999053955077Q108.12000006484985 23.96999905395508 106.33500006484985 24.70099905395508Q104.55000006484985 25.431999053955078 102.18700006484985 25.431999053955078Q99.70500006484986 25.431999053955078 97.87750006484985 24.522499053955077Q96.05000006484985 23.61299905395508 95.09800006484986 22.176499053955077Q94.14600006484986 20.739999053955078 94.14600006484986 19.20999905395508L99.14400006484985 19.20999905395508Q99.19500006484985 20.46799905395508 100.06200006484985 21.096999053955077Q100.92900006484986 21.72599905395508 102.30600006484985 21.72599905395508Q103.56400006484985 21.72599905395508 104.25250006484985 21.241499053955078Q104.94100006484986 20.756999053955077 104.94100006484986 19.94099905395508Q104.94100006484986 19.430999053955077 104.62650006484985 19.073999053955077Q104.31200006484985 18.716999053955078 103.51300006484985 18.410999053955077Q102.71400006484986 18.104999053955076 101.23500006484986 17.78199905395508ZM121.14200006484985 21.079999053955078Q121.94100006484986 21.079999053955078 122.57000006484985 20.960999053955078L122.57000006484985 24.95599905395508Q121.17600006484986 25.431999053955078 119.47600006484986 25.431999053955078Q116.80700006484986 25.431999053955078 115.38750006484986 24.088999053955078Q113.96800006484986 22.745999053955078 113.96800006484986 19.855999053955077L113.96800006484986 10.556999053955078L111.45200006484986 10.556999053955078L111.45200006484986 6.69799905395508L113.96800006484986 6.69799905395508L113.96800006484986 2.141999053955079L119.27200006484985 2.141999053955079L119.27200006484985 6.69799905395508L122.34900006484985 6.69799905395508L122.34900006484985 10.556999053955078L119.27200006484985 10.556999053955078L119.27200006484985 19.20999905395508Q119.27200006484985 20.297999053955078 119.69700006484986 20.68899905395508Q120.12200006484986 21.079999053955078 121.14200006484985 21.079999053955078Z " fill="#000000"></path></g><g id="SvgjsG1015" transform="matrix(1,0,0,1,95.56500244140625,62)"><title>0409_concentric_circles_verti</title><path id="color_2" d="M113.16,88.3a40.05,40.05,0,0,1-74.49,13.94A7.92,7.92,0,0,0,41.51,101,37,37,0,1,0,69.13,45.79a36.66,36.66,0,0,0-11.58,3.36h0a37,37,0,0,0-20.8,37,8.11,8.11,0,0,0-3.08.63,40.07,40.07,0,1,1,79.49,1.48Zm-10-9.44a29.66,29.66,0,0,0-7.59-16.49,8.2,8.2,0,0,1-2,2.39A26.76,26.76,0,0,1,94.56,99a26.28,26.28,0,0,1-5,4.92,26.72,26.72,0,1,1-9.07-47.11,8.13,8.13,0,0,1,1.28-2.95,29.84,29.84,0,1,0,9.66,52.56,29.83,29.83,0,0,0,11.71-27.51Zm-66.27,13a2.47,2.47,0,1,0,2.46,2.46,2.46,2.46,0,0,0-2.46-2.46m0-3.12a5.59,5.59,0,1,1-5.59,5.58,5.58,5.58,0,0,1,5.59-5.58ZM88.45,56a2.47,2.47,0,1,0,2.46,2.46A2.47,2.47,0,0,0,88.45,56m0-3.12a5.59,5.59,0,1,1-5.59,5.58,5.58,5.58,0,0,1,5.59-5.58Z" fill="#b1b1b1"></path><path id="color_1" d="M92.18,82.48A18.74,18.74,0,1,1,73.44,63.75,18.73,18.73,0,0,1,92.18,82.48Z" fill="#000000"></path></g></svg>