<svg id="SvgjsSvg1001" width="475" height="300" xmlns="http://www.w3.org/2000/svg" version="1.1" xmlns:xlink="http://www.w3.org/1999/xlink" xmlns:svgjs="http://svgjs.com/svgjs"><defs id="SvgjsDefs1002"></defs><rect id="SvgjsRect1008" width="475" height="300" fill="#b1b1b1"></rect><g id="SvgjsG1013" transform="matrix(1,0,0,1,0,173.4337615966797)"><path id="SvgjsPath1014" d="M197.56700021743774 13.242999053955078Q197.56700021743774 16.96599905395508 196.21550021743775 19.71999905395508Q194.86400021743773 22.47399905395508 192.45000021743775 23.95299905395508Q190.03600021743773 25.431999053955078 186.90800021743775 25.431999053955078Q183.76300021743774 25.431999053955078 181.34050021743775 23.95299905395508Q178.91800021743774 22.47399905395508 177.56650021743775 19.71999905395508Q176.21500021743773 16.96599905395508 176.21500021743773 13.242999053955078L176.21500021743773 12.205999053955079Q176.21500021743773 8.482999053955076 177.55800021743775 5.720499053955077Q178.90100021743774 2.957999053955078 181.31500021743776 1.4789990539550786Q183.72900021743774 -9.460449206244448e-7 186.87400021743775 -9.460449206244448e-7Q190.00200021743774 -9.460449206244448e-7 192.43300021743775 1.4789990539550786Q194.86400021743773 2.957999053955078 196.21550021743775 5.720499053955077Q197.56700021743774 8.482999053955076 197.56700021743774 12.205999053955079L197.56700021743774 13.242999053955078ZM191.97400021743775 12.171999053955078Q191.97400021743775 8.465999053955077 190.64800021743775 6.502499053955077Q189.32200021743773 4.538999053955077 186.87400021743775 4.538999053955077Q184.39200021743775 4.538999053955077 183.09150021743775 6.493999053955079Q181.79100021743776 8.448999053955077 181.79100021743776 12.171999053955078L181.79100021743776 13.242999053955078Q181.79100021743776 16.948999053955077 183.11700021743775 18.929499053955077Q184.44300021743774 20.909999053955076 186.90800021743775 20.909999053955076Q189.33900021743776 20.909999053955076 190.65650021743775 18.92099905395508Q191.97400021743775 16.931999053955078 191.97400021743775 13.242999053955078L191.97400021743775 12.171999053955078ZM211.47300021743774 6.69799905395508L216.79400021743774 6.69799905395508L216.79400021743774 25.091999053955078L211.81300021743775 25.091999053955078L211.66000021743776 23.15399905395508Q210.77600021743774 24.25899905395508 209.53500021743776 24.845499053955077Q208.29400021743774 25.431999053955078 206.69600021743776 25.431999053955078Q203.82300021743774 25.431999053955078 202.19100021743773 23.765999053955078Q200.55900021743776 22.099999053955077 200.55900021743776 18.59799905395508L200.55900021743776 6.69799905395508L205.86300021743773 6.69799905395508L205.86300021743773 18.631999053955077Q205.86300021743773 19.90699905395508 206.51750021743774 20.52749905395508Q207.17200021743776 21.14799905395508 208.32800021743776 21.14799905395508Q210.58900021743773 21.14799905395508 211.47300021743774 19.58399905395508L211.47300021743774 6.69799905395508ZM228.37100021743774 21.079999053955078Q229.17000021743775 21.079999053955078 229.79900021743774 20.960999053955078L229.79900021743774 24.95599905395508Q228.40500021743776 25.431999053955078 226.70500021743774 25.431999053955078Q224.03600021743773 25.431999053955078 222.61650021743776 24.088999053955078Q221.19700021743773 22.745999053955078 221.19700021743773 19.855999053955077L221.19700021743773 10.556999053955078L218.68100021743774 10.556999053955078L218.68100021743774 6.69799905395508L221.19700021743773 6.69799905395508L221.19700021743773 2.141999053955079L226.50100021743773 2.141999053955079L226.50100021743773 6.69799905395508L229.57800021743776 6.69799905395508L229.57800021743776 10.556999053955078L226.50100021743773 10.556999053955078L226.50100021743773 19.20999905395508Q226.50100021743773 20.297999053955078 226.92600021743775 20.68899905395508Q227.35100021743773 21.079999053955078 228.37100021743774 21.079999053955078ZM241.73300021743773 6.357999053955076Q244.02800021743775 6.357999053955076 245.64300021743776 7.505499053955077Q247.25800021743774 8.652999053955078 248.08250021743774 10.752499053955079Q248.90700021743774 12.851999053955078 248.90700021743774 15.673999053955079L248.90700021743774 16.030999053955078Q248.90700021743774 18.733999053955078 248.07400021743774 20.86749905395508Q247.24100021743774 23.000999053955077 245.63450021743773 24.21649905395508Q244.02800021743775 25.431999053955078 241.76700021743773 25.431999053955078Q239.11500021743774 25.431999053955078 237.43200021743775 23.51099905395508L237.43200021743775 32.16399905395508L232.12800021743774 32.16399905395508L232.12800021743774 6.69799905395508L237.05800021743775 6.69799905395508L237.24500021743773 8.448999053955077Q238.96200021743775 6.357999053955076 241.73300021743773 6.357999053955076ZM243.60300021743774 16.030999053955078L243.60300021743774 15.673999053955079Q243.60300021743774 13.344999053955078 242.82950021743773 11.993499053955079Q242.05600021743774 10.641999053955079 240.39000021743774 10.641999053955079Q239.26800021743776 10.641999053955079 238.54550021743773 11.041499053955079Q237.82300021743774 11.440999053955078 237.43200021743775 12.256999053955077L237.43200021743775 19.46499905395508Q238.24800021743775 21.14799905395508 240.42400021743777 21.14799905395508Q242.10700021743776 21.14799905395508 242.85500021743775 19.74549905395508Q243.60300021743774 18.34299905395508 243.60300021743774 16.030999053955078ZM250.96400021743773 15.724999053955077Q250.96400021743773 13.021999053955078 251.99250021743774 10.896999053955078Q253.02100021743775 8.771999053955078 255.00150021743775 7.564999053955077Q256.98200021743776 6.357999053955076 259.7360002174378 6.357999053955076Q262.50700021743774 6.357999053955076 264.49600021743777 7.564999053955077Q266.48500021743774 8.771999053955078 267.51350021743775 10.888499053955078Q268.54200021743776 13.004999053955078 268.54200021743776 15.724999053955077L268.54200021743776 16.08199905395508Q268.54200021743776 18.784999053955076 267.51350021743775 20.909999053955076Q266.48500021743774 23.03499905395508 264.50450021743774 24.23349905395508Q262.52400021743773 25.431999053955078 259.77000021743777 25.431999053955078Q256.99900021743775 25.431999053955078 255.01000021743775 24.23349905395508Q253.02100021743775 23.03499905395508 251.99250021743774 20.918499053955077Q250.96400021743773 18.80199905395508 250.96400021743773 16.08199905395508L250.96400021743773 15.724999053955077ZM256.26800021743776 16.08199905395508Q256.26800021743776 18.410999053955077 257.09250021743776 19.779499053955078Q257.91700021743776 21.14799905395508 259.77000021743777 21.14799905395508Q261.58900021743773 21.14799905395508 262.41350021743773 19.77099905395508Q263.23800021743773 18.393999053955078 263.23800021743773 16.08199905395508L263.23800021743773 15.724999053955077Q263.23800021743773 13.446999053955079 262.41350021743773 12.044499053955079Q261.58900021743773 10.641999053955079 259.7360002174378 10.641999053955079Q257.91700021743776 10.641999053955079 257.09250021743776 12.044499053955079Q256.26800021743776 13.446999053955079 256.26800021743776 15.724999053955077L256.26800021743776 16.08199905395508ZM277.4500002174377 17.78199905395508Q274.44100021743776 17.13599905395508 272.69850021743775 15.775999053955077Q270.95600021743775 14.415999053955078 270.95600021743775 12.137999053955077Q270.95600021743775 10.573999053955077 271.84850021743773 9.247999053955079Q272.7410002174378 7.921999053955076 274.43250021743773 7.139999053955076Q276.12400021743775 6.357999053955076 278.4020002174377 6.357999053955076Q280.7820002174377 6.357999053955076 282.55850021743777 7.114499053955079Q284.3350002174377 7.870999053955078 285.29550021743773 9.222499053955078Q286.25600021743776 10.573999053955077 286.25600021743776 12.324999053955079L280.9520002174377 12.324999053955079Q280.9520002174377 11.236999053955078 280.33150021743774 10.641999053955079Q279.71100021743774 10.046999053955078 278.3850002174378 10.046999053955078Q277.31400021743775 10.046999053955078 276.65950021743777 10.556999053955078Q276.0050002174377 11.066999053955078 276.0050002174377 11.865999053955077Q276.0050002174377 12.647999053955077 276.7530002174377 13.132499053955078Q277.50100021743776 13.616999053955078 279.25200021743774 13.939999053955079Q281.41100021743773 14.330999053955079 282.93250021743773 14.976999053955078Q284.45400021743774 15.622999053955079 285.3635002174377 16.787499053955077Q286.27300021743775 17.951999053955078 286.27300021743775 19.77099905395508Q286.27300021743775 21.38599905395508 285.30400021743776 22.677999053955077Q284.3350002174377 23.96999905395508 282.55000021743774 24.70099905395508Q280.7650002174378 25.431999053955078 278.4020002174377 25.431999053955078Q275.92000021743775 25.431999053955078 274.09250021743776 24.522499053955077Q272.2650002174378 23.61299905395508 271.3130002174378 22.176499053955077Q270.3610002174378 20.739999053955078 270.3610002174378 19.20999905395508L275.3590002174377 19.20999905395508Q275.41000021743776 20.46799905395508 276.2770002174377 21.096999053955077Q277.14400021743774 21.72599905395508 278.52100021743775 21.72599905395508Q279.7790002174377 21.72599905395508 280.46750021743776 21.241499053955078Q281.15600021743774 20.756999053955077 281.15600021743774 19.94099905395508Q281.15600021743774 19.430999053955077 280.8415002174377 19.073999053955077Q280.5270002174377 18.716999053955078 279.72800021743774 18.410999053955077Q278.92900021743776 18.104999053955076 277.4500002174377 17.78199905395508ZM297.35700021743776 21.079999053955078Q298.15600021743774 21.079999053955078 298.78500021743776 20.960999053955078L298.78500021743776 24.95599905395508Q297.39100021743775 25.431999053955078 295.69100021743776 25.431999053955078Q293.0220002174377 25.431999053955078 291.60250021743775 24.088999053955078Q290.1830002174378 22.745999053955078 290.1830002174378 19.855999053955077L290.1830002174378 10.556999053955078L287.66700021743776 10.556999053955078L287.66700021743776 6.69799905395508L290.1830002174378 6.69799905395508L290.1830002174378 2.141999053955079L295.48700021743775 2.141999053955079L295.48700021743775 6.69799905395508L298.56400021743775 6.69799905395508L298.56400021743775 10.556999053955078L295.48700021743775 10.556999053955078L295.48700021743775 19.20999905395508Q295.48700021743775 20.297999053955078 295.91200021743776 20.68899905395508Q296.3370002174378 21.079999053955078 297.35700021743776 21.079999053955078Z " fill="#000000"></path></g><g id="SvgjsG1015" transform="matrix(1,0,0,1,160,51.43376159667969)"><title>0409_concentric_circles_horiz</title><path id="color_2" d="M116.41,70.85a40.15,40.15,0,0,1-34.92,34,39.9,39.9,0,0,1-39.57-20,7.94,7.94,0,0,0,2.84-1.27,36.93,36.93,0,1,0,16-51.83h0A37,37,0,0,0,40,68.75a8.11,8.11,0,0,0-3.08.63A40.09,40.09,0,0,1,59.45,28.89,39.64,39.64,0,0,1,72,25.25a40.08,40.08,0,0,1,44.4,45.6Zm-10-9.44a29.63,29.63,0,0,0-7.59-16.48,8.33,8.33,0,0,1-2,2.39,26.76,26.76,0,0,1,1.06,34.19,26.28,26.28,0,0,1-5,4.92,26.72,26.72,0,1,1-9.07-47.11,8.21,8.21,0,0,1,1.27-3,29.84,29.84,0,1,0,9.67,52.56,29.83,29.83,0,0,0,11.71-27.52Zm-66.28,13a2.47,2.47,0,1,0,2.47,2.47,2.47,2.47,0,0,0-2.47-2.47m0-3.12a5.59,5.59,0,1,1-5.58,5.59,5.6,5.6,0,0,1,5.58-5.59ZM91.7,38.51A2.47,2.47,0,1,0,94.16,41a2.48,2.48,0,0,0-2.46-2.47m0-3.12A5.59,5.59,0,1,1,86.11,41a5.59,5.59,0,0,1,5.59-5.59Z" fill="#ffffff"></path><path id="color_1" d="M95.43,65A18.74,18.74,0,1,1,76.69,46.3,18.74,18.74,0,0,1,95.43,65Z" fill="#000000"></path></g></svg>